<svg width="44" height="44" viewBox="0 0 44 44" fill="none" xmlns="http://www.w3.org/2000/svg">
<circle cx="22" cy="22" r="22" fill="#7865E0"/>
<g clip-path="url(#clip0_404_683)">
<path d="M30.1667 12.6667C31.095 12.6667 31.9852 13.0354 32.6416 13.6918C33.298 14.3482 33.6667 15.2384 33.6667 16.1667V27.8333C33.6667 28.7616 33.298 29.6518 32.6416 30.3082C31.9852 30.9646 31.095 31.3333 30.1667 31.3333H13.8334C12.9051 31.3333 12.0149 30.9646 11.3585 30.3082C10.7021 29.6518 10.3334 28.7616 10.3334 27.8333V16.1667C10.3334 15.2384 10.7021 14.3482 11.3585 13.6918C12.0149 13.0354 12.9051 12.6667 13.8334 12.6667H30.1667ZM31.3334 19.6667H12.6667V27.8333C12.6667 28.1191 12.7717 28.3949 12.9615 28.6084C13.1514 28.822 13.4131 28.9584 13.6969 28.9918L13.8334 29H30.1667C30.4525 29 30.7283 28.895 30.9418 28.7052C31.1553 28.5153 31.2918 28.2536 31.3252 27.9698L31.3334 27.8333V19.6667ZM27.8334 23.1667C28.1307 23.167 28.4167 23.2808 28.633 23.485C28.8492 23.6891 28.9793 23.9681 28.9967 24.265C29.0142 24.5618 28.9176 24.8541 28.7267 25.0821C28.5359 25.3102 28.2652 25.4567 27.9699 25.4918L27.8334 25.5H24.3334C24.036 25.4997 23.75 25.3858 23.5338 25.1817C23.3176 24.9775 23.1874 24.6985 23.17 24.4017C23.1526 24.1048 23.2492 23.8125 23.44 23.5845C23.6309 23.3565 23.9016 23.2099 24.1969 23.1748L24.3334 23.1667H27.8334ZM30.1667 15H13.8334C13.524 15 13.2272 15.1229 13.0084 15.3417C12.7896 15.5605 12.6667 15.8572 12.6667 16.1667V17.3333H31.3334V16.1667C31.3334 15.8572 31.2105 15.5605 30.9917 15.3417C30.7729 15.1229 30.4761 15 30.1667 15Z" fill="#F0F0F0"/>
</g>
<defs>
<clipPath id="clip0_404_683">
<rect width="28" height="28" fill="white" transform="translate(8 8)"/>
</clipPath>
</defs>
</svg>
