<svg width="294" height="26" viewBox="0 0 294 26" fill="none" xmlns="http://www.w3.org/2000/svg">
<path d="M29.1152 9.79297C29.1152 11.0352 28.875 12.207 28.3945 13.3086C27.9258 14.3984 27.2812 15.3535 26.4609 16.1738C25.6523 16.9824 24.7031 17.6211 23.6133 18.0898C22.5234 18.5586 21.3574 18.793 20.1152 18.793H5.64844V15.2422H20.1152C20.8652 15.2422 21.5684 15.1016 22.2246 14.8203C22.8809 14.5273 23.4492 14.1348 23.9297 13.6426C24.4219 13.1504 24.8086 12.5762 25.0898 11.9199C25.3711 11.252 25.5117 10.543 25.5117 9.79297C25.5117 9.04297 25.3711 8.33984 25.0898 7.68359C24.8086 7.02734 24.4219 6.45898 23.9297 5.97852C23.4492 5.48633 22.8809 5.09961 22.2246 4.81836C21.5684 4.53711 20.8652 4.39648 20.1152 4.39648H3.62695V26H0.0234375V0.792969H20.1152C21.3574 0.792969 22.5234 1.0332 23.6133 1.51367C24.7031 1.98242 25.6523 2.62695 26.4609 3.44727C27.2812 4.25586 27.9258 5.20508 28.3945 6.29492C28.875 7.38477 29.1152 8.55078 29.1152 9.79297ZM59.6484 26H56.0449V15.207H38.4316V11.6035H56.0449V0.792969H59.6484V26ZM36.6387 26H33.0352V0.792969H36.6387V26ZM95.7891 13.3965C95.7891 15.1426 95.5137 16.7832 94.9629 18.3184C94.4121 19.8535 93.627 21.1895 92.6074 22.3262C91.5996 23.4629 90.3867 24.3594 88.9688 25.0156C87.5508 25.6719 85.9746 26 84.2402 26H75.8555C74.1094 26 72.5215 25.6719 71.0918 25.0156C69.6621 24.3594 68.4375 23.4629 67.418 22.3262C66.4102 21.1895 65.6309 19.8535 65.0801 18.3184C64.5293 16.7832 64.2539 15.1426 64.2539 13.3965C64.2539 11.6621 64.5293 10.0332 65.0801 8.50977C65.6309 6.97461 66.4102 5.63867 67.418 4.50195C68.4375 3.35352 69.6621 2.45117 71.0918 1.79492C72.5215 1.12695 74.1094 0.792969 75.8555 0.792969H84.2402C85.9746 0.792969 87.5508 1.12695 88.9688 1.79492C90.3867 2.45117 91.5996 3.35352 92.6074 4.50195C93.627 5.63867 94.4121 6.97461 94.9629 8.50977C95.5137 10.0332 95.7891 11.6621 95.7891 13.3965ZM92.1855 13.3965C92.1855 12.1543 92.0039 10.9883 91.6406 9.89844C91.2773 8.80859 90.75 7.85938 90.0586 7.05078C89.3789 6.23047 88.5469 5.58594 87.5625 5.11719C86.5898 4.63672 85.4824 4.39648 84.2402 4.39648H75.8555C74.6133 4.39648 73.4941 4.63672 72.498 5.11719C71.5137 5.58594 70.6758 6.23047 69.9844 7.05078C69.3047 7.85938 68.7773 8.80859 68.4023 9.89844C68.0391 10.9883 67.8574 12.1543 67.8574 13.3965C67.8574 14.6387 68.0391 15.8105 68.4023 16.9121C68.7773 18.002 69.3047 18.957 69.9844 19.7773C70.6758 20.5859 71.5137 21.2246 72.498 21.6934C73.4941 22.1621 74.6133 22.3965 75.8555 22.3965H84.2402C85.4824 22.3965 86.5898 22.1621 87.5625 21.6934C88.5469 21.2246 89.3789 20.5859 90.0586 19.7773C90.75 18.957 91.2773 18.002 91.6406 16.9121C92.0039 15.8105 92.1855 14.6387 92.1855 13.3965ZM103.998 26H100.395V0.792969H102.188C103.359 0.792969 104.602 0.945313 105.914 1.25C107.238 1.55469 108.586 1.99414 109.957 2.56836C111.328 3.14258 112.693 3.83984 114.053 4.66016C115.424 5.46875 116.748 6.38867 118.025 7.41992C119.303 8.45117 120.504 9.57617 121.629 10.7949C122.754 12.002 123.762 13.291 124.652 14.6621V0.792969H128.256V26H124.652C124.652 24.1484 124.33 22.3672 123.686 20.6562C123.041 18.9336 122.18 17.3105 121.102 15.7871C120.023 14.2637 118.781 12.8633 117.375 11.5859C115.969 10.2969 114.498 9.16602 112.963 8.19336C111.439 7.2207 109.904 6.42383 108.357 5.80273C106.811 5.16992 105.357 4.74805 103.998 4.53711V26ZM160.389 26H134.32V0.792969H160.389V4.39648H137.924V22.3965H160.389V26ZM157.33 15.207H139.717V11.6035H157.33V15.207ZM192.697 18.793C192.697 19.8008 192.51 20.7441 192.135 21.623C191.76 22.4902 191.244 23.252 190.588 23.9082C189.943 24.5527 189.182 25.0625 188.303 25.4375C187.436 25.8125 186.504 26 185.508 26H163.605V22.3965H185.508C186.012 22.3965 186.48 22.3027 186.914 22.1152C187.348 21.9277 187.723 21.6699 188.039 21.3418C188.367 21.0137 188.625 20.6328 188.812 20.1992C189 19.7539 189.094 19.2852 189.094 18.793C189.094 18.3008 189 17.8379 188.812 17.4043C188.625 16.9707 188.367 16.5898 188.039 16.2617C187.723 15.9336 187.348 15.6758 186.914 15.4883C186.48 15.3008 186.012 15.207 185.508 15.207H170.812C169.828 15.207 168.896 15.0195 168.018 14.6445C167.139 14.2695 166.371 13.7598 165.715 13.1152C165.07 12.459 164.555 11.6914 164.168 10.8125C163.793 9.93359 163.605 8.99609 163.605 8C163.605 7.01562 163.793 6.08398 164.168 5.20508C164.555 4.32617 165.07 3.56445 165.715 2.91992C166.371 2.26367 167.139 1.74805 168.018 1.37305C168.896 0.986328 169.828 0.792969 170.812 0.792969H190.904V4.39648H170.812C170.32 4.39648 169.852 4.49023 169.406 4.67773C168.973 4.86523 168.592 5.12305 168.264 5.45117C167.936 5.7793 167.678 6.16602 167.49 6.61133C167.303 7.04492 167.209 7.50781 167.209 8C167.209 8.49219 167.303 8.96094 167.49 9.40625C167.678 9.83984 167.936 10.2207 168.264 10.5488C168.592 10.877 168.973 11.1348 169.406 11.3223C169.852 11.5098 170.32 11.6035 170.812 11.6035H185.508C186.504 11.6035 187.436 11.7969 188.303 12.1836C189.182 12.5586 189.943 13.0742 190.588 13.7305C191.244 14.375 191.76 15.1367 192.135 16.0156C192.51 16.8828 192.697 17.8086 192.697 18.793ZM223.547 26H219.943V15.207H202.33V11.6035H219.943V0.792969H223.547V26ZM200.537 26H196.934V0.792969H200.537V26ZM259.688 13.3965C259.688 15.1426 259.412 16.7832 258.861 18.3184C258.311 19.8535 257.525 21.1895 256.506 22.3262C255.498 23.4629 254.285 24.3594 252.867 25.0156C251.449 25.6719 249.873 26 248.139 26H239.754C238.008 26 236.42 25.6719 234.99 25.0156C233.561 24.3594 232.336 23.4629 231.316 22.3262C230.309 21.1895 229.529 19.8535 228.979 18.3184C228.428 16.7832 228.152 15.1426 228.152 13.3965C228.152 11.6621 228.428 10.0332 228.979 8.50977C229.529 6.97461 230.309 5.63867 231.316 4.50195C232.336 3.35352 233.561 2.45117 234.99 1.79492C236.42 1.12695 238.008 0.792969 239.754 0.792969H248.139C249.873 0.792969 251.449 1.12695 252.867 1.79492C254.285 2.45117 255.498 3.35352 256.506 4.50195C257.525 5.63867 258.311 6.97461 258.861 8.50977C259.412 10.0332 259.688 11.6621 259.688 13.3965ZM256.084 13.3965C256.084 12.1543 255.902 10.9883 255.539 9.89844C255.176 8.80859 254.648 7.85938 253.957 7.05078C253.277 6.23047 252.445 5.58594 251.461 5.11719C250.488 4.63672 249.381 4.39648 248.139 4.39648H239.754C238.512 4.39648 237.393 4.63672 236.396 5.11719C235.412 5.58594 234.574 6.23047 233.883 7.05078C233.203 7.85938 232.676 8.80859 232.301 9.89844C231.938 10.9883 231.756 12.1543 231.756 13.3965C231.756 14.6387 231.938 15.8105 232.301 16.9121C232.676 18.002 233.203 18.957 233.883 19.7773C234.574 20.5859 235.412 21.2246 236.396 21.6934C237.393 22.1621 238.512 22.3965 239.754 22.3965H248.139C249.381 22.3965 250.488 22.1621 251.461 21.6934C252.445 21.2246 253.277 20.5859 253.957 19.7773C254.648 18.957 255.176 18.002 255.539 16.9121C255.902 15.8105 256.084 14.6387 256.084 13.3965ZM293.385 9.79297C293.385 11.0352 293.145 12.207 292.664 13.3086C292.195 14.3984 291.551 15.3535 290.73 16.1738C289.922 16.9824 288.973 17.6211 287.883 18.0898C286.793 18.5586 285.627 18.793 284.385 18.793H269.918V15.2422H284.385C285.135 15.2422 285.838 15.1016 286.494 14.8203C287.15 14.5273 287.719 14.1348 288.199 13.6426C288.691 13.1504 289.078 12.5762 289.359 11.9199C289.641 11.252 289.781 10.543 289.781 9.79297C289.781 9.04297 289.641 8.33984 289.359 7.68359C289.078 7.02734 288.691 6.45898 288.199 5.97852C287.719 5.48633 287.15 5.09961 286.494 4.81836C285.838 4.53711 285.135 4.39648 284.385 4.39648H267.896V26H264.293V0.792969H284.385C285.627 0.792969 286.793 1.0332 287.883 1.51367C288.973 1.98242 289.922 2.62695 290.73 3.44727C291.551 4.25586 292.195 5.20508 292.664 6.29492C293.145 7.38477 293.385 8.55078 293.385 9.79297Z" fill="#4623D2"/>
</svg>
