<svg width="13" height="14" viewBox="0 0 13 14" fill="none" xmlns="http://www.w3.org/2000/svg">
<path d="M12.7026 4.08939C12.6664 4.03618 12.6185 3.99275 12.5627 3.96275C12.507 3.93276 12.4452 3.91708 12.3824 3.91703H4.01899L3.38591 1.65396C3.13765 0.762827 2.54771 0.666626 2.30575 0.666626H0.617736C0.401378 0.666626 0.22641 0.848203 0.22641 1.07226C0.22641 1.29632 0.401575 1.47789 0.617724 1.47789H2.30554C2.35893 1.47789 2.52188 1.47789 2.63302 1.87597L4.81087 10.1727C4.85816 10.3478 5.01204 10.4687 5.18759 10.4687H10.5072C10.6723 10.4687 10.8197 10.3615 10.8755 10.2003L12.7504 4.4599C12.7936 4.33551 12.7757 4.19703 12.7026 4.08939H12.7026ZM10.2318 9.65764H5.48461L4.23895 4.72851H11.826L10.2318 9.65764ZM9.45568 11.2908C8.91147 11.2908 8.4705 11.7479 8.4705 12.312C8.4705 12.8762 8.91147 13.3333 9.45568 13.3333C9.99989 13.3333 10.4409 12.8762 10.4409 12.312C10.4409 11.7479 9.99989 11.2908 9.45568 11.2908ZM5.90903 11.2908C5.36481 11.2908 4.92384 11.7479 4.92384 12.312C4.92384 12.8762 5.36481 13.3333 5.90903 13.3333C6.45324 13.3333 6.89421 12.8762 6.89421 12.312C6.89421 11.7479 6.45324 11.2908 5.90903 11.2908Z" fill="#E9E6FA"/>
</svg>
