<svg width="14" height="13" viewBox="0 0 14 13" fill="none" xmlns="http://www.w3.org/2000/svg">
<path d="M4.61619 3.8115L6.41818 0.241352C6.45278 0.169532 6.50686 0.108871 6.57425 0.0662771C6.64165 0.0236831 6.71964 0.000867249 6.79937 0.000427246C6.95036 0.000427246 7.10135 0.0804606 7.18303 0.241352L8.98502 3.8115L13.0263 4.38576C13.127 4.4016 13.2192 4.45169 13.2873 4.5276C13.3554 4.60351 13.3952 4.70057 13.4001 4.80243C13.4058 4.87024 13.3962 4.93848 13.3719 5.00205C13.3476 5.06562 13.3093 5.12289 13.2598 5.16959L10.353 7.93858L11.0378 11.8412C11.1022 12.2068 10.7408 12.4931 10.4223 12.3297L6.79937 10.4683L3.17806 12.3297C3.14018 12.3494 3.09958 12.3633 3.0576 12.3709C2.77542 12.4205 2.50644 12.1614 2.56255 11.8412L3.24737 7.93858L0.341417 5.16959C0.29624 5.12685 0.260331 5.07528 0.235918 5.01808C0.211505 4.96088 0.19911 4.89927 0.199502 4.83708C0.199545 4.74916 0.223811 4.66295 0.269635 4.58791C0.302142 4.53351 0.346449 4.4871 0.399287 4.45212C0.452125 4.41713 0.512144 4.39445 0.574917 4.38576L4.61619 3.8115ZM6.79937 9.5112C6.86597 9.51092 6.93165 9.52677 6.99079 9.5574L10.0321 11.1201L9.45944 7.85525C9.44593 7.78016 9.45105 7.7029 9.47435 7.63026C9.49765 7.55761 9.53843 7.49179 9.59311 7.43858L11.9916 5.15309L8.64839 4.67784C8.57916 4.66739 8.51349 4.64031 8.45702 4.59892C8.40055 4.55754 8.35495 4.50308 8.32413 4.44022L6.80019 1.42205L6.79937 1.42453V9.51037V9.5112Z" fill="black"/>
</svg>
