<svg width="41" height="41" viewBox="0 0 41 41" fill="none" xmlns="http://www.w3.org/2000/svg">
<path d="M38.4531 19.6685C38.4564 19.6685 38.4588 19.6685 38.4621 19.6685C38.6909 19.6685 38.909 19.5726 39.064 19.4045C39.2214 19.2339 39.2993 19.0051 39.2788 18.7739C38.4555 9.71864 31.2863 2.54692 22.2302 1.722C22.0006 1.70396 21.7694 1.77858 21.5988 1.93684C21.4282 2.09428 21.3331 2.3165 21.3356 2.54856C21.4783 14.5829 23.0658 19.5004 38.4531 19.6685ZM38.4531 21.3315C23.0658 21.4996 21.4791 26.4171 21.3364 38.4514C21.3339 38.6835 21.4291 38.9057 21.5996 39.0632C21.7521 39.2034 21.9514 39.2813 22.1564 39.2813C22.181 39.2813 22.2064 39.2805 22.231 39.278C31.2871 38.4531 38.4564 31.2822 39.2788 22.2261C39.2993 21.9949 39.2222 21.7661 39.064 21.5955C38.9057 21.425 38.6851 21.3405 38.4531 21.3315ZM18.7149 1.7261C9.68748 2.5748 2.54118 9.74488 1.722 18.7755C1.7015 19.0068 1.77858 19.2356 1.93684 19.4061C2.09182 19.5742 2.31076 19.6693 2.53872 19.6693C2.542 19.6693 2.54528 19.6693 2.54856 19.6693C17.885 19.493 19.4684 14.578 19.6128 2.55184C19.6152 2.31978 19.5193 2.09674 19.3487 1.9393C19.1765 1.78186 18.9461 1.70478 18.7149 1.7261ZM2.54774 21.3307C2.29272 21.302 2.09264 21.4233 1.93602 21.5939C1.77858 21.7644 1.70068 21.9932 1.72118 22.2245C2.54036 31.2551 9.68748 38.4252 18.7149 39.2739C18.7403 39.2764 18.7665 39.2772 18.7919 39.2772C18.9969 39.2772 19.1954 39.2001 19.3479 39.0599C19.5185 38.9024 19.6144 38.6794 19.6119 38.4473C19.4676 26.422 17.885 21.507 2.54774 21.3307Z" fill="white"/>
</svg>
