<svg width="26" height="26" viewBox="0 0 26 26" fill="none" xmlns="http://www.w3.org/2000/svg">
<g clip-path="url(#clip0_27_389)">
<path d="M20.0272 25.5956C19.7843 25.5949 19.5422 25.5683 19.305 25.5162C14.7887 24.5819 10.628 22.3914 7.30168 19.1967C4.04638 15.995 1.78866 11.9186 0.801676 7.46061C0.685298 6.90501 0.713862 6.32881 0.884619 5.78745C1.05538 5.24608 1.36258 4.75777 1.77668 4.3695L4.66556 1.58894C4.81312 1.4494 4.98844 1.34254 5.18009 1.27534C5.37174 1.20814 5.5754 1.18211 5.77779 1.19894C5.98764 1.22083 6.19015 1.28843 6.37107 1.39699C6.55199 1.50554 6.70694 1.65241 6.82501 1.82727L10.4361 7.1645C10.5715 7.37159 10.6369 7.61668 10.6226 7.8637C10.6083 8.11073 10.5151 8.34664 10.3567 8.53672L8.5439 10.7034C9.26587 12.3013 10.2883 13.7454 11.5556 14.9573C12.8146 16.2131 14.3028 17.2158 15.9395 17.9112L18.1856 16.1273C18.3742 15.9782 18.6038 15.89 18.8437 15.8746C19.0837 15.8591 19.3227 15.917 19.5289 16.0406L24.9817 19.5651C25.1688 19.6768 25.3282 19.8294 25.448 20.0115C25.5677 20.1936 25.6448 20.4004 25.6732 20.6165C25.7017 20.8325 25.6809 21.0522 25.6125 21.2591C25.544 21.466 25.4296 21.6548 25.2778 21.8112L22.4611 24.5989C22.1412 24.9173 21.7614 25.1693 21.3437 25.3403C20.926 25.5114 20.4786 25.5981 20.0272 25.5956ZM5.66223 2.62894L2.77334 5.4095C2.54039 5.62656 2.36795 5.90052 2.27298 6.20443C2.178 6.50835 2.16377 6.83175 2.23168 7.14283C3.14942 11.326 5.25903 15.1539 8.30556 18.1639C11.4358 21.1695 15.3513 23.2299 19.6011 24.1078C19.9228 24.1751 20.2561 24.1615 20.5713 24.0682C20.8864 23.9749 21.1734 23.8049 21.4067 23.5734L24.2233 20.7856L18.9583 17.3839L16.5461 19.3051C16.4538 19.3781 16.345 19.4275 16.2291 19.4489C16.1133 19.4703 15.994 19.4631 15.8817 19.4278C13.8787 18.6899 12.0636 17.5184 10.5661 15.9973C9.01721 14.5508 7.8149 12.7733 7.0489 10.7973C7.01649 10.6776 7.01542 10.5517 7.04577 10.4315C7.07613 10.3114 7.1369 10.201 7.22223 10.1112L9.17223 7.77839L5.66223 2.62894Z" fill="white"/>
</g>
<defs>
<clipPath id="clip0_27_389">
<rect width="26" height="26" fill="white"/>
</clipPath>
</defs>
</svg>
