<svg width="41" height="41" viewBox="0 0 41 41" fill="none" xmlns="http://www.w3.org/2000/svg">
<path d="M20.5 3.41663C11.07 3.41663 3.41669 11.07 3.41669 20.5C3.41669 29.93 11.07 37.5833 20.5 37.5833C29.93 37.5833 37.5834 29.93 37.5834 20.5C37.5834 11.07 29.93 3.41663 20.5 3.41663ZM28.4267 15.0333C28.1704 17.7325 27.06 24.2925 26.4963 27.3162C26.2571 28.5975 25.7788 29.0245 25.3346 29.0758C24.3438 29.1612 23.5921 28.4266 22.6354 27.7945C21.1321 26.8037 20.2779 26.1887 18.8259 25.232C17.1346 24.1216 18.2279 23.5066 19.2017 22.5158C19.4579 22.2595 23.8313 18.2791 23.9167 17.9204C23.9286 17.866 23.927 17.8096 23.9121 17.756C23.8972 17.7025 23.8695 17.6533 23.8313 17.6129C23.7288 17.5275 23.5921 17.5616 23.4725 17.5787C23.3188 17.6129 20.9271 19.2016 16.2634 22.345C15.58 22.8062 14.965 23.0454 14.4184 23.0283C13.8034 23.0112 12.6417 22.6866 11.7704 22.3962C10.6942 22.0545 9.8571 21.8666 9.92544 21.2687C9.9596 20.9612 10.3867 20.6537 11.1896 20.3291C16.1779 18.1595 19.4921 16.7245 21.1492 16.0412C25.8984 14.0595 26.8721 13.7179 27.5213 13.7179C27.6579 13.7179 27.9825 13.752 28.1875 13.9229C28.3584 14.0595 28.4096 14.2475 28.4267 14.3841C28.4096 14.4866 28.4438 14.7941 28.4267 15.0333Z" fill="white"/>
</svg>
