<svg width="41" height="41" viewBox="0 0 41 41" fill="none" xmlns="http://www.w3.org/2000/svg">
<path d="M25.7497 3.41663H15.2674C5.69387 3.41663 3.41666 5.69383 3.41666 15.2503V25.7326C3.41666 35.3044 5.67678 37.5833 15.2503 37.5833H25.7326C35.3044 37.5833 37.5833 35.3232 37.5833 25.7497V15.2673C37.5833 5.69383 35.3232 3.41663 25.7497 3.41663ZM30.9994 27.7945H28.5069C27.5639 27.7945 27.2804 27.0309 25.5891 25.3397C24.1131 23.9166 23.4896 23.739 23.1154 23.739C22.5995 23.739 22.4577 23.8808 22.4577 24.5931V26.8345C22.4577 27.4409 22.2613 27.7963 20.6777 27.7963C19.1407 27.693 17.6504 27.226 16.3293 26.4339C15.0082 25.6418 13.8942 24.5471 13.079 23.2401C11.1437 20.8314 9.79718 18.0043 9.14641 14.9838C9.14641 14.6096 9.2882 14.2714 10.0006 14.2714H12.4913C13.1319 14.2714 13.3626 14.5567 13.6137 15.2144C14.8232 18.7745 16.8869 21.87 17.7239 21.87C18.0451 21.87 18.1852 21.7283 18.1852 20.927V17.261C18.0793 15.5885 17.1909 15.4467 17.1909 14.842C17.2024 14.6825 17.2755 14.5337 17.3947 14.4271C17.514 14.3206 17.6701 14.2647 17.8299 14.2714H21.7454C22.2801 14.2714 22.4577 14.5379 22.4577 15.1785V20.1258C22.4577 20.6605 22.6884 20.8382 22.8489 20.8382C23.1701 20.8382 23.4178 20.6605 24.0055 20.0729C25.2677 18.5336 26.299 16.8186 27.0668 14.982C27.1453 14.7614 27.2938 14.5726 27.4897 14.4442C27.6855 14.3159 27.918 14.2552 28.1516 14.2714H30.6441C31.3906 14.2714 31.5495 14.6455 31.3906 15.1785C30.4843 17.2087 29.3629 19.1359 28.0457 20.927C27.7775 21.337 27.6699 21.5506 28.0457 22.0306C28.2934 22.4048 29.1664 23.1342 29.754 23.8278C30.608 24.6796 31.3172 25.6652 31.8536 26.7456C32.0671 27.4392 31.7101 27.7945 30.9994 27.7945Z" fill="white"/>
</svg>
