<svg width="82" height="82" viewBox="0 0 82 82" fill="none" xmlns="http://www.w3.org/2000/svg">
<g clip-path="url(#clip0_61_476)">
<path d="M81.672 36.8589V32.5334H65.764C62.443 32.5334 60.9465 34.5834 60.7005 36.5719V36.6334V32.5334H56.0265V36.8589H60.68H81.672ZM60.68 38.4169L56.006 38.1504V43.1319C56.006 44.6899 55.227 45.1614 52.521 45.1614H48.79C46.5555 45.1614 45.6125 44.5259 45.6125 43.1319V37.6789L40.877 37.3304V43.5214H40.7745C40.508 41.7174 39.8315 39.6264 35.3215 39.3189L20.5 38.3349C20.5 40.6104 22.1195 41.9634 24.6615 42.2299L34.9935 43.2754C35.8135 43.3369 36.408 43.5829 36.408 44.2594C36.408 44.9974 35.793 45.0794 34.85 45.0794H20.3155V38.3349L15.58 38.0274V49.4664H34.8705C39.1755 49.4664 40.549 47.2319 40.754 45.3664H40.8565C41.3895 48.3184 43.9725 49.4664 48.339 49.4664H53.1565C58.261 49.4664 60.68 47.9084 60.68 44.2594V38.4169ZM75.7065 39.2984L60.885 38.4169C60.885 40.6924 62.3815 42.2094 64.9235 42.4144L75.481 43.2344C76.301 43.2959 76.793 43.5009 76.793 44.1774C76.793 44.8129 76.219 45.0589 75.03 45.0589H60.639V49.4664H75.3375C79.9705 49.4664 82 47.8469 82 44.1569C82 40.8359 80.1755 39.5854 75.7065 39.2984ZM40.877 32.5334H45.6125V36.8589H40.877V32.5334ZM12.9765 37.8224L7.831 37.3099L0 49.4664H5.7605L12.9765 37.8224ZM40.016 32.5334H25.5635C22.2015 32.5334 20.7255 34.6244 20.377 36.6334V32.5334H12.3615C11.234 32.5334 10.701 32.8819 10.168 33.6609L7.954 36.8589H40.016V32.5334Z" fill="black"/>
</g>
<defs>
<clipPath id="clip0_61_476">
<rect width="82" height="82" fill="white"/>
</clipPath>
</defs>
</svg>
