<svg width="48" height="48" viewBox="0 0 48 48" fill="none" xmlns="http://www.w3.org/2000/svg">
<path d="M42.912 20.308C43.158 21.626 43.292 23.004 43.292 24.442C43.292 35.69 35.764 43.688 24.394 43.688C21.8083 43.6888 19.2478 43.1801 16.8588 42.191C14.4698 41.2018 12.2991 39.7516 10.4707 37.9233C8.64236 36.0949 7.19219 33.9242 6.20305 31.5352C5.21392 29.1462 4.70521 26.5857 4.706 24C4.70521 21.4143 5.21392 18.8538 6.20305 16.4648C7.19219 14.0758 8.64236 11.9051 10.4707 10.0767C12.2991 8.24838 14.4698 6.7982 16.8588 5.80907C19.2478 4.81993 21.8083 4.31122 24.394 4.31201C29.71 4.31201 34.152 6.26801 37.56 9.44401L32.01 14.994V14.98C29.944 13.012 27.322 12.002 24.394 12.002C17.898 12.002 12.618 17.49 12.618 23.988C12.618 30.484 17.898 35.984 24.394 35.984C30.288 35.984 34.3 32.614 35.124 27.986H24.394V20.308H42.914H42.912Z" fill="black"/>
</svg>
