<svg width="48" height="48" viewBox="0 0 48 48" fill="none" xmlns="http://www.w3.org/2000/svg">
<g clip-path="url(#clip0_61_480)">
<path d="M7.344 12.282C7.344 12.282 3.6405 15.8205 3.438 19.563V20.259C3.6015 23.283 5.883 25.0635 5.883 25.0635C9.54 28.641 18.399 33.141 20.4765 34.158C20.4765 34.158 20.601 34.221 20.679 34.143L20.718 34.065V33.9795C15.039 21.6045 7.3425 12.2835 7.3425 12.2835L7.344 12.282ZM19.2975 37.203C19.2585 37.0395 19.1025 37.0395 19.1025 37.0395L4.344 37.563C5.9385 40.422 8.6415 42.618 11.4615 41.961C13.383 41.4615 17.7825 38.3985 19.2195 37.359C19.344 37.257 19.2975 37.179 19.2975 37.179V37.203ZM19.461 35.64C12.9765 31.257 0.4215 24.5625 0.4215 24.5625C0.153387 25.4014 0.0113373 26.2754 0 27.156L0 27.297C0 29.4375 0.7965 30.9375 0.7965 30.9375C2.3985 34.32 5.4765 35.3445 5.4765 35.3445C6.8835 35.9385 8.2815 35.961 8.2815 35.961C8.523 36 17.079 35.961 19.359 35.961C19.461 35.961 19.5225 35.859 19.5225 35.859V35.742C19.5225 35.679 19.4595 35.64 19.4595 35.64H19.461ZM18.117 6.38253C16.6999 6.74542 15.4363 7.55257 14.5113 8.68573C13.5862 9.81889 13.0484 11.2185 12.9765 12.6795V13.5C13.0114 14.2097 13.119 14.9138 13.2975 15.6015C14.6175 21.399 21.024 30.8985 22.3995 32.898C22.5015 33 22.602 32.961 22.602 32.961C22.6403 32.9439 22.6723 32.9151 22.6933 32.8787C22.7143 32.8424 22.7233 32.8003 22.719 32.7585C24.8445 11.5635 20.5005 5.92203 20.5005 5.92203C19.86 5.96103 18.117 6.38253 18.117 6.38253ZM34.719 10.9215C34.719 10.9215 33.7425 7.32003 29.844 6.35853C29.844 6.35853 28.704 6.07653 27.4995 5.92053C27.4995 5.92053 23.1405 11.538 25.257 32.7795C25.281 32.9205 25.3815 32.9355 25.3815 32.9355C25.5225 32.9985 25.5765 32.8815 25.5765 32.8815C27.0225 30.819 33.381 21.3585 34.6785 15.6C34.6785 15.6 35.397 12.795 34.7175 10.92L34.719 10.9215ZM28.8825 37.062C28.8825 37.062 28.7415 37.062 28.7025 37.1565C28.7025 37.1565 28.6785 37.2975 28.7565 37.359C30.1545 38.382 34.4595 41.3595 36.522 41.961C36.522 41.961 36.843 42.063 37.3815 42.078H37.6545C39.0375 42.039 41.4585 41.343 43.6545 37.563L28.857 37.0635L28.8825 37.062ZM44.5395 20.2425C44.8215 16.1175 40.656 12.297 40.656 12.282C40.656 12.282 32.961 21.603 27.3195 33.8835C27.3195 33.8835 27.2565 34.0395 27.3585 34.1415L27.4365 34.1565H27.561C29.6775 33.102 38.475 28.617 42.1155 25.0785C42.1155 25.0785 44.4195 23.2185 44.538 20.2425H44.5395ZM47.5785 24.5235C47.5785 24.5235 35.0235 31.2585 28.539 35.6175C28.539 35.6175 28.437 35.703 28.476 35.844C28.476 35.844 28.539 35.961 28.617 35.961C30.9375 35.961 39.7425 35.961 39.9615 35.922C39.9615 35.922 41.1015 35.883 42.501 35.3445C42.501 35.3445 45.618 34.344 47.2425 30.798C47.2425 30.798 48.7035 27.9 47.5785 24.525V24.5235Z" fill="black"/>
</g>
<defs>
<clipPath id="clip0_61_480">
<rect width="48" height="48" fill="white"/>
</clipPath>
</defs>
</svg>
