<svg width="82" height="82" viewBox="0 0 82 82" fill="none" xmlns="http://www.w3.org/2000/svg">
<path d="M3.97701 47.6727H0.0256348V34.3785H6.84445L14.678 44.3081V34.3785H18.6294V47.6727H11.9438L3.97701 37.5816V47.6727ZM37.5022 43.5625C37.5022 45.4049 37.1691 46.0455 36.6207 46.658C35.793 47.5651 34.5784 47.847 32.2286 47.847H25.4892C23.1394 47.847 21.9248 47.5676 21.0843 46.658C20.5359 46.043 20.2028 45.4177 20.2028 43.5625V38.4375C20.2028 36.595 20.5359 35.9544 21.0843 35.3548C21.9248 34.4348 23.1394 34.1658 25.4892 34.1658H32.2286C34.563 34.1658 35.793 34.4323 36.6207 35.3548C37.1691 35.9544 37.5022 36.595 37.5022 38.4503V43.5625ZM32.0569 44.4824C32.964 44.4824 33.2715 44.4286 33.4996 44.2287C33.6994 44.0416 33.7943 43.8161 33.7943 43.0269V38.9705C33.7943 38.1966 33.702 37.9557 33.4996 37.7815C33.2715 37.5816 32.9666 37.5278 32.0569 37.5278H25.6506C24.7563 37.5278 24.436 37.5816 24.2233 37.7815C24.0106 37.9557 23.9286 38.194 23.9286 38.9705V43.0269C23.9286 43.8136 24.0209 44.0416 24.2233 44.2287C24.436 44.4286 24.7563 44.4824 25.6506 44.4824H32.0569ZM43.2422 34.381V47.6753H39.1191V34.381H43.2422ZM50.2096 34.381H55.6421L48.3006 40.6002L56.5877 47.6727H50.7554L43.2422 40.7463L50.2096 34.3938V34.381ZM57.3488 34.3938H61.4718V47.6727H57.3488V34.3938ZM77.1953 47.6727L75.9679 45.3639H67.9857L66.7839 47.6727H62.2329L69.5334 34.3785H74.6584L81.9718 47.6727H77.1928H77.1953ZM69.4284 42.4811H74.5534L71.9909 37.6636L69.4284 42.4811Z" fill="black"/>
</svg>
