<svg width="82" height="82" viewBox="0 0 82 82" fill="none" xmlns="http://www.w3.org/2000/svg">
<g clip-path="url(#clip0_27_264)">
<path d="M67.7064 35.1268L67.8678 44.3236H67.7884L65.1182 35.1268H60.7415V46.7119H63.6371L63.4757 37.1947H63.5551L66.4123 46.7119H70.602V35.1268H67.7064ZM12.5332 35.1268L10.3448 46.8323H13.5069L15.1213 36.1826H15.1879L16.7639 46.8323H19.9004L17.7376 35.1268H12.5332ZM30.2298 35.1268L28.7871 44.0546H28.7077L27.2522 35.1268H22.4731L22.2451 46.8323H25.1817L25.2611 36.303H25.2867L27.2496 46.8323H30.2247L32.1876 36.303H32.267L32.3464 46.8323H35.2831L35.0037 35.1268H30.2298ZM5.40431 43.5087C5.52475 43.7752 5.48375 44.175 5.44531 44.3621C5.36587 44.7618 5.084 45.1487 4.31012 45.1487C3.56187 45.1487 3.1365 44.7208 3.1365 44.0956V42.9604H0V43.8547C0 46.4838 2.06794 47.2577 4.27169 47.2577C6.38062 47.2577 8.14106 46.5248 8.42294 44.6029C8.58437 43.5882 8.46394 42.9219 8.42294 42.6811C7.87456 40.2108 3.40556 39.5189 3.09806 38.1429C3.05671 37.9356 3.05671 37.7223 3.09806 37.5151C3.1775 37.1281 3.444 36.7284 4.15125 36.7284C4.8585 36.7284 5.24544 37.1563 5.24544 37.7816V38.4888H8.18206V37.6739C8.18206 35.1242 5.87325 34.7373 4.23069 34.7373C2.14737 34.7373 0.427937 35.4317 0.120437 37.3126C0.0144546 37.8342 0.0284747 38.3731 0.161437 38.8886C0.627812 41.305 4.82006 42.0122 5.40687 43.5062L5.40431 43.5087ZM43.5087 43.5087C43.6291 43.7752 43.5881 44.1366 43.5497 44.3621C43.4702 44.7618 43.1884 45.1487 42.4145 45.1487C41.6662 45.1487 41.2409 44.7208 41.2409 44.0956V42.9604H38.1044V43.8547C38.1044 46.4428 40.1339 47.2321 42.3351 47.2321C44.444 47.2321 46.166 46.5248 46.4453 44.5619C46.6067 43.5472 46.4863 42.9194 46.4453 42.6401C45.9789 40.2108 41.5484 39.4779 41.2409 38.1429C41.1995 37.9356 41.1995 37.7223 41.2409 37.5151C41.3075 37.1281 41.5868 36.7284 42.2941 36.7284C42.9603 36.7284 43.3882 37.1563 43.3882 37.7816V38.4888H46.2839V37.6739C46.2839 35.1242 44.0161 34.7373 42.3735 34.7373C40.2902 34.7373 38.6092 35.3907 38.3017 37.3126C38.2222 37.82 38.2222 38.2992 38.3273 38.8886C38.8091 41.305 42.9193 41.9712 43.5061 43.5062L43.5087 43.5087ZM53.3717 45.0719C54.1994 45.0719 54.4249 44.5235 54.5069 44.2186C54.5479 44.0981 54.5479 43.8982 54.5479 43.7778V35.1294H57.523V43.5497C57.523 43.7778 57.523 44.216 57.482 44.3236C57.2949 46.5248 55.5601 47.2321 53.4102 47.2321C51.2602 47.2321 49.5408 46.5248 49.3384 44.3236C49.3384 44.216 49.2974 43.7752 49.2974 43.5497V35.1294H52.2724V43.7778C52.2724 43.9392 52.2724 44.0981 52.3134 44.2186C52.3134 44.5261 52.5543 45.0719 53.3666 45.0719H53.3717ZM77.8103 44.9514C78.679 44.9514 78.9455 44.4031 79.0249 44.0981C79.0659 43.9777 79.0659 43.7778 79.0659 43.6702V41.9764H77.8513V40.2544H82.0026V43.3909C82.0026 43.6317 82.0026 43.7778 81.9616 44.1776C81.7617 46.3275 79.9192 47.0732 77.8513 47.0732C75.768 47.0732 73.9409 46.3249 73.7411 44.1776C73.7001 43.7778 73.7001 43.6292 73.7001 43.3909V38.4529C73.7001 38.2659 73.7411 37.8661 73.7411 37.6791C74.0076 35.4779 75.7706 34.7706 77.8513 34.7706C79.9192 34.7706 81.7207 35.4779 81.9616 37.6791C82.0026 38.025 82.0026 38.4529 82.0026 38.4529V38.8527H79.0659V38.1864C79.0659 38.1864 79.0659 37.9071 79.0249 37.7457C78.9839 37.4792 78.7456 36.8924 77.8513 36.8924C76.9826 36.8924 76.7571 37.4407 76.6777 37.7457C76.6367 37.9071 76.6367 38.107 76.6367 38.3069V43.6727C76.6367 43.8188 76.6367 43.9802 76.6777 44.1007C76.6777 44.4082 76.9852 44.954 77.8129 44.954L77.8103 44.9514Z" fill="black"/>
</g>
<defs>
<clipPath id="clip0_27_264">
<rect width="82" height="82" fill="white"/>
</clipPath>
</defs>
</svg>
