<svg width="82" height="82" viewBox="0 0 82 82" fill="none" xmlns="http://www.w3.org/2000/svg">
<g clip-path="url(#clip0_27_267)">
<path d="M29.2125 33.7841C32.3592 33.7841 34.8773 34.5699 36.8009 36.3192C38.1163 37.5116 38.8509 39.2097 38.8304 40.9898C38.8256 41.8681 38.6433 42.7364 38.2946 43.5426C37.9458 44.3487 37.4378 45.076 36.8009 45.6809C35.0003 47.3346 32.1952 48.2161 29.2159 48.2161C26.2332 48.2161 23.4759 47.3346 21.648 45.6809C20.989 45.0919 20.464 44.3683 20.1086 43.559C19.7532 42.7497 19.5755 41.8736 19.5877 40.9898C19.5877 39.22 20.3326 37.5219 21.648 36.3192C23.3563 34.7681 26.3767 33.7841 29.2125 33.7841ZM29.2227 46.3232C30.7978 46.3232 32.2567 45.7731 33.2817 44.7584C34.3067 43.7334 34.7612 42.5034 34.7612 40.9898C34.7612 39.5411 34.2555 38.1847 33.2817 37.2212C32.2772 36.2304 30.7773 35.6666 29.2227 35.6666C27.6682 35.6666 26.1717 36.227 25.1569 37.2212C24.1832 38.1847 23.6741 39.5411 23.6741 40.9898C23.6533 42.3922 24.1861 43.7462 25.1569 44.7584C26.1717 45.7629 27.6613 46.3198 29.2227 46.3198V46.3232ZM12.6827 39.5992C13.2293 39.7427 13.7589 39.9204 14.2748 40.1561C14.7535 40.3741 15.1914 40.6722 15.5697 41.0376C16.2428 41.7415 16.6255 42.6845 16.6152 43.6548C16.6226 44.1693 16.5092 44.6783 16.2844 45.1411C16.0595 45.6039 15.7293 46.0076 15.3203 46.3198C14.5968 46.8682 13.7743 47.2719 12.8979 47.5088C11.5787 47.9229 10.2008 48.119 8.81841 48.0896C7.61574 48.0896 6.95291 47.9496 6.04066 47.7582L5.77758 47.7036C4.77233 47.4812 3.79068 47.1632 2.84608 46.7537C2.80384 46.7251 2.75356 46.7107 2.70258 46.7127C2.62765 46.7145 2.55639 46.7455 2.50404 46.7992C2.45169 46.8528 2.42239 46.9248 2.42241 46.9997V47.6933H0.41341V42.6435H2.20374C2.21476 43.1554 2.37769 43.6525 2.67183 44.0716C3.39616 44.96 4.17516 45.3016 4.91658 45.575C6.17049 45.985 7.48591 46.2036 8.79791 46.2446C10.6873 46.2446 11.7909 45.7868 12.0301 45.6877L12.0608 45.6741L12.0813 45.6672C12.2932 45.5886 13.1473 45.2777 13.1473 44.3279C13.1473 43.3917 12.3478 43.1867 11.8251 43.0535L11.7499 43.0364C11.1691 42.8792 9.82974 42.7357 8.36741 42.582L7.84808 42.5273C6.47677 42.3877 5.11222 42.1882 3.75833 41.9294C2.05683 41.5536 1.38716 40.9317 0.970327 40.5456L0.942993 40.5183C0.335348 39.8704 -0.00195839 39.0149 -6.83754e-06 38.1266C-6.83754e-06 36.432 1.16166 35.407 2.58641 34.7783C4.11024 34.095 5.92108 33.7909 7.50641 33.7909C10.3081 33.8011 12.587 34.7134 13.407 35.1371C13.7384 35.3147 13.9024 35.0961 13.9024 34.9321V34.423H15.703V38.8236H14.0903C13.9455 38.1706 13.5931 37.582 13.0858 37.1461C12.7767 36.8974 12.4353 36.6917 12.0711 36.5345C10.7193 35.9637 9.26406 35.6787 7.79683 35.6974C6.28324 35.6974 4.83458 35.9878 4.10683 36.432C3.65583 36.7121 3.42349 37.0641 3.42349 37.4775C3.42349 38.0686 3.92233 38.3043 4.17516 38.3761C4.84483 38.5811 6.33449 38.728 7.49274 38.8441L8.18974 38.9159C9.30699 39.0286 11.6474 39.3396 12.6827 39.5992ZM74.7532 36.1928V34.5562H82V36.1621H80.3737C79.786 36.1621 79.5468 36.2748 79.1027 36.7736L74.2271 42.3428C74.1756 42.4113 74.1524 42.4969 74.1622 42.582V45.1171C74.1703 45.235 74.184 45.3525 74.2032 45.4691C74.2322 45.5434 74.2783 45.6099 74.3376 45.6633C74.3969 45.7166 74.4679 45.7554 74.5448 45.7766C74.6919 45.7982 74.8403 45.8097 74.989 45.8107H76.6495V47.4166H67.855V45.8107H69.4267C69.5753 45.8097 69.7237 45.7983 69.8708 45.7766C69.9489 45.7543 70.0211 45.7152 70.0825 45.6621C70.1439 45.609 70.1929 45.5431 70.2262 45.4691C70.2466 45.3563 70.2569 45.242 70.2569 45.1274V42.5922C70.2569 42.5068 70.2569 42.5068 70.1442 42.3736C68.5393 40.5451 66.9312 38.7194 65.3198 36.8966C65.0602 36.6267 64.616 36.1928 63.9327 36.1928H62.3678V34.587H71.2102V36.1928H70.1442C69.905 36.1928 69.741 36.432 69.946 36.6916L72.9492 40.2826C72.98 40.3236 73.0005 40.3236 73.0415 40.2928C73.0825 40.2621 76.096 36.7224 76.1165 36.6916C76.1413 36.659 76.1595 36.6217 76.1698 36.5819C76.1802 36.5422 76.1826 36.5008 76.1769 36.4602C76.1712 36.4195 76.1575 36.3804 76.1365 36.345C76.1156 36.3097 76.0879 36.2789 76.055 36.2543C75.9941 36.2144 75.9228 36.193 75.85 36.1928H74.7532ZM53.2829 36.1826H54.94C55.6951 36.1826 55.8283 36.473 55.8386 37.1768L55.9342 42.5273L47.1124 34.587H40.8087V36.1928H42.2163C43.2311 36.1928 43.3028 36.7531 43.3028 37.252V44.8131C43.3028 45.2504 43.3062 45.821 42.681 45.821H40.9522V47.4166H48.3458V45.8107H46.5418C45.8175 45.8107 45.7902 45.4793 45.7765 44.7755V38.3453L55.9342 47.4029H58.5207L58.384 37.1666C58.3977 36.4217 58.4489 36.1723 59.2142 36.1723H60.8303V34.5665H53.2829V36.1826Z" fill="black"/>
</g>
<defs>
<clipPath id="clip0_27_267">
<rect width="82" height="82" fill="white"/>
</clipPath>
</defs>
</svg>
